<svg width="40" height="40" viewBox="0 0 40 40" fill="none" xmlns="http://www.w3.org/2000/svg">
<path fill-rule="evenodd" clip-rule="evenodd" d="M0 20C0 8.9543 8.9543 0 20 0C31.0457 0 40 8.9543 40 20C40 31.0457 31.0457 40 20 40C8.9543 40 0 31.0457 0 20ZM19.125 29.3752L20 28.5002L18.25 26.7502L17.375 27.6252C15.9275 29.0727 13.5724 29.0727 12.125 27.6252C10.6776 26.1778 10.6775 23.8227 12.125 22.3753L16.5 18.0003C17.9474 16.5528 20.3026 16.5529 21.75 18.0003L23.5 16.2503C21.0837 13.834 17.1662 13.834 14.75 16.2503L10.375 20.6253C7.95876 23.0415 7.95876 26.959 10.375 29.3752C12.7912 31.7915 16.7087 31.7915 19.125 29.3752ZM20.875 10.1253L20 11.0003L21.75 12.7503L22.625 11.8753C24.0724 10.4278 26.4275 10.4278 27.875 11.8753C29.3224 13.3227 29.3224 15.6778 27.875 17.1253L23.5 21.5002C22.0525 22.9477 19.6974 22.9476 18.25 21.5002L16.5 23.2502C18.9162 25.6665 22.8337 25.6665 25.25 23.2502L29.625 18.8752C32.0412 16.459 32.0412 12.5415 29.625 10.1253C27.2087 7.70904 23.2912 7.70904 20.875 10.1253Z" fill="#0A17A9"/>
</svg>
