<svg width="40" height="41" viewBox="0 0 40 41" fill="none" xmlns="http://www.w3.org/2000/svg">
<path fill-rule="evenodd" clip-rule="evenodd" d="M0 20.1509C0 9.10518 8.9543 0.150879 20 0.150879C31.0457 0.150879 40 9.10518 40 20.1509C40 31.1966 31.0457 40.1509 20 40.1509C8.9543 40.1509 0 31.1966 0 20.1509ZM14.1338 16.7157H9.60135V30.3338H14.1338V16.7157ZM14.4323 12.5031C14.4029 11.1679 13.448 10.1509 11.8975 10.1509C10.347 10.1509 9.33333 11.1679 9.33333 12.5031C9.33333 13.8107 10.317 14.857 11.8387 14.857H11.8677C13.448 14.857 14.4323 13.8107 14.4323 12.5031ZM30.4795 22.5256C30.4795 18.3428 28.2435 16.396 25.261 16.396C22.8545 16.396 21.7771 17.7177 21.1756 18.645V16.7161H16.6426C16.7023 17.994 16.6426 30.3342 16.6426 30.3342H21.1756V22.7287C21.1756 22.3217 21.205 21.9157 21.3248 21.6243C21.6524 20.8112 22.3982 19.9694 23.6504 19.9694C25.2912 19.9694 25.9471 21.2181 25.9471 23.0482V30.3338H30.4793L30.4795 22.5256Z" fill="#0A17A9"/>
</svg>
