<svg width="88" height="88" viewBox="0 0 88 88" fill="none" xmlns="http://www.w3.org/2000/svg">
<circle cx="44" cy="44" r="44" fill="white"/>
<path d="M48 75L16 45L38 23L69 54L48 75Z" fill="#00734C"/>
<path d="M50 69L18 39L40 17L71 48L50 69Z" fill="#00B176"/>
<rect x="33.2427" y="38.1716" width="15" height="1" transform="rotate(-45 33.2427 38.1716)" fill="white"/>
<circle cx="31.1213" cy="41" r="1.5" transform="rotate(-45 31.1213 41)" fill="white"/>
<rect x="38.1924" y="43.1213" width="15" height="1" transform="rotate(-45 38.1924 43.1213)" fill="white"/>
<circle cx="36.071" cy="45.9497" r="1.5" transform="rotate(-45 36.071 45.9497)" fill="white"/>
<rect x="43.1421" y="48.071" width="15" height="1" transform="rotate(-45 43.1421 48.071)" fill="white"/>
<circle cx="41.0207" cy="50.8994" r="1.5" transform="rotate(-45 41.0207 50.8994)" fill="white"/>
<rect x="48.0918" y="53.0208" width="15" height="1" transform="rotate(-45 48.0918 53.0208)" fill="white"/>
<circle cx="45.9704" cy="55.8491" r="1.5" transform="rotate(-45 45.9704 55.8491)" fill="white"/>
</svg>
